<?xml version="1.0" encoding="UTF-8" standalone="no"?>
<svg width="16px" height="13px" viewBox="0 0 16 13" version="1.1" xmlns="http://www.w3.org/2000/svg" xmlns:xlink="http://www.w3.org/1999/xlink" xmlns:sketch="http://www.bohemiancoding.com/sketch/ns">
    <!-- Generator: Sketch 3.0.3 (7891) - http://www.bohemiancoding.com/sketch -->
    <title>Shape</title>
    <desc>Created with Sketch.</desc>
    <defs></defs>
    <g id="Page-1" stroke="none" stroke-width="1" fill="none" fill-rule="evenodd" sketch:type="MSPage">
        <path d="M2.5,0 L0.009,0 L0.009,12.029 L2.5,12.029 C2.776,12.029 3,11.804 3,11.529 L3,0.5 C3,0.224 2.776,0 2.5,0 L2.5,0 Z M14.502,4.029 L10.502,4.029 C10.227,4.029 10.002,3.804 10.002,3.529 L10.002,2.529 C10.002,2.254 9.842,2.188 9.648,2.383 L6.354,5.675 C6.16,5.869 6.16,6.188 6.354,6.383 L9.648,9.676 C9.836,9.869 10.002,9.805 10.002,9.53 L10.002,8.53 C10.002,8.259 10.229,8.03 10.502,8.03 L14.502,8.03 C14.777,8.03 15.002,7.805 15.002,7.53 L15.002,4.53 C15.002,4.254 14.777,4.029 14.502,4.029 L14.502,4.029 Z" id="Shape" fill="#5181C6" sketch:type="MSShapeGroup"></path>
    </g>
</svg>