<?xml version="1.0" encoding="UTF-8" standalone="no"?>
<svg width="15px" height="13px" viewBox="0 0 15 13" version="1.1" xmlns="http://www.w3.org/2000/svg" xmlns:xlink="http://www.w3.org/1999/xlink" xmlns:sketch="http://www.bohemiancoding.com/sketch/ns">
    <!-- Generator: Sketch 3.0.3 (7891) - http://www.bohemiancoding.com/sketch -->
    <title>Shape</title>
    <desc>Created with Sketch.</desc>
    <defs></defs>
    <g id="Page-1" stroke="none" stroke-width="1" fill="none" fill-rule="evenodd" sketch:type="MSPage">
        <path d="M12.501,0 C12.226,0 12.001,0.224 12.001,0.5 L12.001,11.529 C12.001,11.804 12.226,12.029 12.501,12.029 L14.993,12.029 L14.993,0 L12.501,0 L12.501,0 Z M5.353,2.382 C5.159,2.188 5,2.254 5,2.529 L5,3.529 C5,3.804 4.775,4.029 4.5,4.029 L0.5,4.029 C0.225,4.029 0,4.254 0,4.529 L0,7.529 C0,7.8 0.225,8.029 0.5,8.029 L4.5,8.029 C4.775,8.029 5,8.254 5,8.529 L5,9.529 C5,9.8 5.159,9.869 5.354,9.675 L8.649,6.382 C8.842,6.188 8.842,5.869 8.649,5.674 L5.353,2.382 L5.353,2.382 Z" id="Shape" fill="#5181C6" sketch:type="MSShapeGroup"></path>
    </g>
</svg>